<svg width="189" height="4976" viewBox="0 0 189 4976" fill="none" xmlns="http://www.w3.org/2000/svg">
<circle cx="129.5" cy="248.5" r="8.5" fill="#4E5EA4"/>
<circle cx="170.5" cy="208.5" r="8.5" fill="#4E5EA4"/>
<circle cx="90.5" cy="208.5" r="8.5" fill="#4E5EA4"/>
<circle cx="50.5" cy="168.5" r="8.5" fill="#4E5EA4"/>
<circle cx="11.5" cy="129.5" r="8.5" fill="#4E5EA4"/>
<circle cx="90.5" cy="127.5" r="8.5" fill="#4E5EA4"/>
<circle cx="129.5" cy="168.5" r="8.5" fill="#4E5EA4"/>
<circle cx="170.5" cy="127.5" r="8.5" fill="#4E5EA4"/>
<circle cx="129.5" cy="87.5" r="8.5" fill="#4E5EA4"/>
<circle cx="50.5" cy="87.5" r="8.5" fill="#4E5EA4"/>
<circle cx="13.5" cy="48.5" r="8.5" fill="#4E5EA4"/>
<circle cx="90.5" cy="48.5" r="8.5" fill="#4E5EA4"/>
<circle cx="50.5" cy="8.5" r="8.5" fill="#4E5EA4"/>
<circle cx="129.5" cy="8.5" r="8.5" fill="#4E5EA4"/>
<circle cx="170.5" cy="48.5" r="8.5" fill="#4E5EA4"/>
<circle cx="130.5" cy="568.5" r="8.5" fill="#4E5EA4"/>
<circle cx="170.5" cy="608.5" r="8.5" fill="#4E5EA4"/>
<circle cx="170.5" cy="688.5" r="8.5" fill="#4E5EA4"/>
<circle cx="130.5" cy="729.5" r="8.5" fill="#4E5EA4"/>
<circle cx="170.5" cy="529.5" r="8.5" fill="#4E5EA4"/>
<circle cx="90.5" cy="529.5" r="8.5" fill="#4E5EA4"/>
<circle cx="50.5" cy="488.5" r="8.5" fill="#4E5EA4"/>
<circle cx="129.5" cy="488.5" r="8.5" fill="#4E5EA4"/>
<circle cx="90.5" cy="449.5" r="8.5" fill="#4E5EA4"/>
<circle cx="51.5" cy="407.5" r="8.5" fill="#4E5EA4"/>
<circle cx="12.5" cy="449.5" r="8.5" fill="#4E5EA4"/>
<circle cx="10.5" cy="369.5" r="8.5" fill="#4E5EA4"/>
<circle cx="50.5" cy="328.5" r="8.5" fill="#4E5EA4"/>
<circle cx="90.5" cy="368.5" r="8.5" fill="#4E5EA4"/>
<circle cx="129.5" cy="408.5" r="8.5" fill="#4E5EA4"/>
<circle cx="49.5" cy="968.5" r="8.5" fill="#4E5EA4"/>
<circle cx="130.5" cy="968.5" r="8.5" fill="#4E5EA4"/>
<circle cx="90.5" cy="928.5" r="8.5" fill="#4E5EA4"/>
<circle cx="49.5" cy="888.5" r="8.5" fill="#4E5EA4"/>
<circle cx="11.5" cy="849.5" r="8.5" fill="#4E5EA4"/>
<circle cx="90.5" cy="769.5" r="8.5" fill="#4E5EA4"/>
<circle cx="13.5" cy="769.5" r="8.5" fill="#4E5EA4"/>
<circle cx="50.5" cy="729.5" r="8.5" fill="#4E5EA4"/>
<circle cx="90.5" cy="848.5" r="8.5" fill="#4E5EA4"/>
<circle cx="130.5" cy="888.5" r="8.5" fill="#4E5EA4"/>
<circle cx="170.5" cy="848.5" r="8.5" fill="#4E5EA4"/>
<circle cx="170.5" cy="928.5" r="8.5" fill="#4E5EA4"/>
<circle cx="130.5" cy="808.5" r="8.5" fill="#4E5EA4"/>
<circle cx="49.5" cy="808.5" r="8.5" fill="#4E5EA4"/>
<circle cx="170.5" cy="769.5" r="8.5" fill="#4E5EA4"/>
<circle cx="11.5" cy="928.5" r="8.5" fill="#4E5EA4"/>
<circle cx="170.5" cy="449.5" r="8.5" fill="#4E5EA4"/>
<circle cx="12.5" cy="529.5" r="8.5" fill="#4E5EA4"/>
<circle cx="11.5" cy="688.5" r="8.5" fill="#4E5EA4"/>
<circle cx="170.5" cy="368.5" r="8.5" fill="#4E5EA4"/>
<circle cx="129.5" cy="328.5" r="8.5" fill="#4E5EA4"/>
<circle cx="170.5" cy="289.5" r="8.5" fill="#4E5EA4"/>
<circle cx="90.5" cy="289.5" r="8.5" fill="#4E5EA4"/>
<circle cx="50.5" cy="249.5" r="8.5" fill="#4E5EA4"/>
<circle cx="14.5" cy="289.5" r="8.5" fill="#4E5EA4"/>
<circle cx="11.5" cy="209.5" r="8.5" fill="#4E5EA4"/>
<circle cx="50.5" cy="568.5" r="8.5" fill="#4E5EA4"/>
<circle cx="90.5" cy="688.5" r="8.5" fill="#4E5EA4"/>
<circle cx="130.5" cy="648.5" r="8.5" fill="#4E5EA4"/>
<circle cx="90.5" cy="608.5" r="8.5" fill="#4E5EA4"/>
<circle cx="50.5" cy="649.5" r="8.5" fill="#4E5EA4"/>
<circle cx="12.5" cy="608.5" r="8.5" fill="#4E5EA4"/>
<circle cx="127.5" cy="1255.5" r="8.5" fill="#4E5EA4"/>
<circle cx="168.5" cy="1215.5" r="8.5" fill="#4E5EA4"/>
<circle cx="88.5" cy="1215.5" r="8.5" fill="#4E5EA4"/>
<circle cx="48.5" cy="1175.5" r="8.5" fill="#4E5EA4"/>
<circle cx="9.5" cy="1136.5" r="8.5" fill="#4E5EA4"/>
<circle cx="88.5" cy="1134.5" r="8.5" fill="#4E5EA4"/>
<circle cx="127.5" cy="1175.5" r="8.5" fill="#4E5EA4"/>
<circle cx="168.5" cy="1134.5" r="8.5" fill="#4E5EA4"/>
<circle cx="127.5" cy="1094.5" r="8.5" fill="#4E5EA4"/>
<circle cx="48.5" cy="1094.5" r="8.5" fill="#4E5EA4"/>
<circle cx="11.5" cy="1055.5" r="8.5" fill="#4E5EA4"/>
<circle cx="88.5" cy="1055.5" r="8.5" fill="#4E5EA4"/>
<circle cx="48.5" cy="1015.5" r="8.5" fill="#4E5EA4"/>
<circle cx="127.5" cy="1015.5" r="8.5" fill="#4E5EA4"/>
<circle cx="168.5" cy="1055.5" r="8.5" fill="#4E5EA4"/>
<circle cx="128.5" cy="1575.5" r="8.5" fill="#4E5EA4"/>
<circle cx="168.5" cy="1615.5" r="8.5" fill="#4E5EA4"/>
<circle cx="168.5" cy="1695.5" r="8.5" fill="#4E5EA4"/>
<circle cx="128.5" cy="1736.5" r="8.5" fill="#4E5EA4"/>
<circle cx="168.5" cy="1536.5" r="8.5" fill="#4E5EA4"/>
<circle cx="88.5" cy="1536.5" r="8.5" fill="#4E5EA4"/>
<circle cx="48.5" cy="1495.5" r="8.5" fill="#4E5EA4"/>
<circle cx="127.5" cy="1495.5" r="8.5" fill="#4E5EA4"/>
<circle cx="88.5" cy="1456.5" r="8.5" fill="#4E5EA4"/>
<circle cx="49.5" cy="1414.5" r="8.5" fill="#4E5EA4"/>
<circle cx="10.5" cy="1456.5" r="8.5" fill="#4E5EA4"/>
<circle cx="8.5" cy="1376.5" r="8.5" fill="#4E5EA4"/>
<circle cx="48.5" cy="1335.5" r="8.5" fill="#4E5EA4"/>
<circle cx="88.5" cy="1375.5" r="8.5" fill="#4E5EA4"/>
<circle cx="127.5" cy="1415.5" r="8.5" fill="#4E5EA4"/>
<circle cx="47.5" cy="1975.5" r="8.5" fill="#4E5EA4"/>
<circle cx="128.5" cy="1975.5" r="8.5" fill="#4E5EA4"/>
<circle cx="88.5" cy="1935.5" r="8.5" fill="#4E5EA4"/>
<circle cx="47.5" cy="1895.5" r="8.5" fill="#4E5EA4"/>
<circle cx="9.5" cy="1856.5" r="8.5" fill="#4E5EA4"/>
<circle cx="88.5" cy="1776.5" r="8.5" fill="#4E5EA4"/>
<circle cx="11.5" cy="1776.5" r="8.5" fill="#4E5EA4"/>
<circle cx="48.5" cy="1736.5" r="8.5" fill="#4E5EA4"/>
<circle cx="88.5" cy="1855.5" r="8.5" fill="#4E5EA4"/>
<circle cx="128.5" cy="1895.5" r="8.5" fill="#4E5EA4"/>
<circle cx="168.5" cy="1855.5" r="8.5" fill="#4E5EA4"/>
<circle cx="168.5" cy="1935.5" r="8.5" fill="#4E5EA4"/>
<circle cx="128.5" cy="1815.5" r="8.5" fill="#4E5EA4"/>
<circle cx="47.5" cy="1815.5" r="8.5" fill="#4E5EA4"/>
<circle cx="168.5" cy="1776.5" r="8.5" fill="#4E5EA4"/>
<circle cx="9.5" cy="1935.5" r="8.5" fill="#4E5EA4"/>
<circle cx="168.5" cy="1456.5" r="8.5" fill="#4E5EA4"/>
<circle cx="10.5" cy="1536.5" r="8.5" fill="#4E5EA4"/>
<circle cx="9.5" cy="1695.5" r="8.5" fill="#4E5EA4"/>
<circle cx="168.5" cy="1375.5" r="8.5" fill="#4E5EA4"/>
<circle cx="127.5" cy="1335.5" r="8.5" fill="#4E5EA4"/>
<circle cx="168.5" cy="1296.5" r="8.5" fill="#4E5EA4"/>
<circle cx="88.5" cy="1296.5" r="8.5" fill="#4E5EA4"/>
<circle cx="48.5" cy="1256.5" r="8.5" fill="#4E5EA4"/>
<circle cx="12.5" cy="1296.5" r="8.5" fill="#4E5EA4"/>
<circle cx="9.5" cy="1216.5" r="8.5" fill="#4E5EA4"/>
<circle cx="48.5" cy="1575.5" r="8.5" fill="#4E5EA4"/>
<circle cx="88.5" cy="1695.5" r="8.5" fill="#4E5EA4"/>
<circle cx="128.5" cy="1655.5" r="8.5" fill="#4E5EA4"/>
<circle cx="88.5" cy="1615.5" r="8.5" fill="#4E5EA4"/>
<circle cx="48.5" cy="1656.5" r="8.5" fill="#4E5EA4"/>
<circle cx="10.5" cy="1615.5" r="8.5" fill="#4E5EA4"/>
<circle cx="127.5" cy="2262.5" r="8.5" fill="#4E5EA4"/>
<circle cx="168.5" cy="2222.5" r="8.5" fill="#4E5EA4"/>
<circle cx="88.5" cy="2222.5" r="8.5" fill="#4E5EA4"/>
<circle cx="48.5" cy="2182.5" r="8.5" fill="#4E5EA4"/>
<circle cx="9.5" cy="2143.5" r="8.5" fill="#4E5EA4"/>
<circle cx="88.5" cy="2141.5" r="8.5" fill="#4E5EA4"/>
<circle cx="127.5" cy="2182.5" r="8.5" fill="#4E5EA4"/>
<circle cx="168.5" cy="2141.5" r="8.5" fill="#4E5EA4"/>
<circle cx="127.5" cy="2101.5" r="8.5" fill="#4E5EA4"/>
<circle cx="48.5" cy="2101.5" r="8.5" fill="#4E5EA4"/>
<circle cx="11.5" cy="2062.5" r="8.5" fill="#4E5EA4"/>
<circle cx="88.5" cy="2062.5" r="8.5" fill="#4E5EA4"/>
<circle cx="48.5" cy="2022.5" r="8.5" fill="#4E5EA4"/>
<circle cx="127.5" cy="2022.5" r="8.5" fill="#4E5EA4"/>
<circle cx="168.5" cy="2062.5" r="8.5" fill="#4E5EA4"/>
<circle cx="128.5" cy="2582.5" r="8.5" fill="#4E5EA4"/>
<circle cx="168.5" cy="2622.5" r="8.5" fill="#4E5EA4"/>
<circle cx="168.5" cy="2702.5" r="8.5" fill="#4E5EA4"/>
<circle cx="128.5" cy="2743.5" r="8.5" fill="#4E5EA4"/>
<circle cx="168.5" cy="2543.5" r="8.5" fill="#4E5EA4"/>
<circle cx="88.5" cy="2543.5" r="8.5" fill="#4E5EA4"/>
<circle cx="48.5" cy="2502.5" r="8.5" fill="#4E5EA4"/>
<circle cx="127.5" cy="2502.5" r="8.5" fill="#4E5EA4"/>
<circle cx="88.5" cy="2463.5" r="8.5" fill="#4E5EA4"/>
<circle cx="49.5" cy="2421.5" r="8.5" fill="#4E5EA4"/>
<circle cx="10.5" cy="2463.5" r="8.5" fill="#4E5EA4"/>
<circle cx="8.5" cy="2383.5" r="8.5" fill="#4E5EA4"/>
<circle cx="48.5" cy="2342.5" r="8.5" fill="#4E5EA4"/>
<circle cx="88.5" cy="2382.5" r="8.5" fill="#4E5EA4"/>
<circle cx="127.5" cy="2422.5" r="8.5" fill="#4E5EA4"/>
<circle cx="47.5" cy="2982.5" r="8.5" fill="#4E5EA4"/>
<circle cx="128.5" cy="2982.5" r="8.5" fill="#4E5EA4"/>
<circle cx="88.5" cy="2942.5" r="8.5" fill="#4E5EA4"/>
<circle cx="47.5" cy="2902.5" r="8.5" fill="#4E5EA4"/>
<circle cx="9.5" cy="2863.5" r="8.5" fill="#4E5EA4"/>
<circle cx="88.5" cy="2783.5" r="8.5" fill="#4E5EA4"/>
<circle cx="11.5" cy="2783.5" r="8.5" fill="#4E5EA4"/>
<circle cx="48.5" cy="2743.5" r="8.5" fill="#4E5EA4"/>
<circle cx="88.5" cy="2862.5" r="8.5" fill="#4E5EA4"/>
<circle cx="128.5" cy="2902.5" r="8.5" fill="#4E5EA4"/>
<circle cx="168.5" cy="2862.5" r="8.5" fill="#4E5EA4"/>
<circle cx="168.5" cy="2942.5" r="8.5" fill="#4E5EA4"/>
<circle cx="128.5" cy="2822.5" r="8.5" fill="#4E5EA4"/>
<circle cx="47.5" cy="2822.5" r="8.5" fill="#4E5EA4"/>
<circle cx="168.5" cy="2783.5" r="8.5" fill="#4E5EA4"/>
<circle cx="9.5" cy="2942.5" r="8.5" fill="#4E5EA4"/>
<circle cx="168.5" cy="2463.5" r="8.5" fill="#4E5EA4"/>
<circle cx="10.5" cy="2543.5" r="8.5" fill="#4E5EA4"/>
<circle cx="9.5" cy="2702.5" r="8.5" fill="#4E5EA4"/>
<circle cx="168.5" cy="2382.5" r="8.5" fill="#4E5EA4"/>
<circle cx="127.5" cy="2342.5" r="8.5" fill="#4E5EA4"/>
<circle cx="168.5" cy="2303.5" r="8.5" fill="#4E5EA4"/>
<circle cx="88.5" cy="2303.5" r="8.5" fill="#4E5EA4"/>
<circle cx="48.5" cy="2263.5" r="8.5" fill="#4E5EA4"/>
<circle cx="12.5" cy="2303.5" r="8.5" fill="#4E5EA4"/>
<circle cx="9.5" cy="2223.5" r="8.5" fill="#4E5EA4"/>
<circle cx="48.5" cy="2582.5" r="8.5" fill="#4E5EA4"/>
<circle cx="88.5" cy="2702.5" r="8.5" fill="#4E5EA4"/>
<circle cx="128.5" cy="2662.5" r="8.5" fill="#4E5EA4"/>
<circle cx="88.5" cy="2622.5" r="8.5" fill="#4E5EA4"/>
<circle cx="48.5" cy="2663.5" r="8.5" fill="#4E5EA4"/>
<circle cx="10.5" cy="2622.5" r="8.5" fill="#4E5EA4"/>
<circle cx="127.5" cy="3287.5" r="8.5" fill="#4E5EA4"/>
<circle cx="168.5" cy="3247.5" r="8.5" fill="#4E5EA4"/>
<circle cx="88.5" cy="3247.5" r="8.5" fill="#4E5EA4"/>
<circle cx="48.5" cy="3207.5" r="8.5" fill="#4E5EA4"/>
<circle cx="9.5" cy="3168.5" r="8.5" fill="#4E5EA4"/>
<circle cx="88.5" cy="3166.5" r="8.5" fill="#4E5EA4"/>
<circle cx="127.5" cy="3207.5" r="8.5" fill="#4E5EA4"/>
<circle cx="168.5" cy="3166.5" r="8.5" fill="#4E5EA4"/>
<circle cx="127.5" cy="3126.5" r="8.5" fill="#4E5EA4"/>
<circle cx="48.5" cy="3126.5" r="8.5" fill="#4E5EA4"/>
<circle cx="11.5" cy="3087.5" r="8.5" fill="#4E5EA4"/>
<circle cx="88.5" cy="3087.5" r="8.5" fill="#4E5EA4"/>
<circle cx="48.5" cy="3047.5" r="8.5" fill="#4E5EA4"/>
<circle cx="127.5" cy="3047.5" r="8.5" fill="#4E5EA4"/>
<circle cx="168.5" cy="3087.5" r="8.5" fill="#4E5EA4"/>
<circle cx="128.5" cy="3607.5" r="8.5" fill="#4E5EA4"/>
<circle cx="168.5" cy="3647.5" r="8.5" fill="#4E5EA4"/>
<circle cx="168.5" cy="3727.5" r="8.5" fill="#4E5EA4"/>
<circle cx="128.5" cy="3768.5" r="8.5" fill="#4E5EA4"/>
<circle cx="168.5" cy="3568.5" r="8.5" fill="#4E5EA4"/>
<circle cx="88.5" cy="3568.5" r="8.5" fill="#4E5EA4"/>
<circle cx="48.5" cy="3527.5" r="8.5" fill="#4E5EA4"/>
<circle cx="127.5" cy="3527.5" r="8.5" fill="#4E5EA4"/>
<circle cx="88.5" cy="3488.5" r="8.5" fill="#4E5EA4"/>
<circle cx="49.5" cy="3446.5" r="8.5" fill="#4E5EA4"/>
<circle cx="10.5" cy="3488.5" r="8.5" fill="#4E5EA4"/>
<circle cx="8.5" cy="3408.5" r="8.5" fill="#4E5EA4"/>
<circle cx="48.5" cy="3367.5" r="8.5" fill="#4E5EA4"/>
<circle cx="88.5" cy="3407.5" r="8.5" fill="#4E5EA4"/>
<circle cx="127.5" cy="3447.5" r="8.5" fill="#4E5EA4"/>
<circle cx="47.5" cy="4007.5" r="8.5" fill="#4E5EA4"/>
<circle cx="128.5" cy="4007.5" r="8.5" fill="#4E5EA4"/>
<circle cx="88.5" cy="3967.5" r="8.5" fill="#4E5EA4"/>
<circle cx="47.5" cy="3927.5" r="8.5" fill="#4E5EA4"/>
<circle cx="9.5" cy="3888.5" r="8.5" fill="#4E5EA4"/>
<circle cx="88.5" cy="3808.5" r="8.5" fill="#4E5EA4"/>
<circle cx="11.5" cy="3808.5" r="8.5" fill="#4E5EA4"/>
<circle cx="48.5" cy="3768.5" r="8.5" fill="#4E5EA4"/>
<circle cx="88.5" cy="3887.5" r="8.5" fill="#4E5EA4"/>
<circle cx="128.5" cy="3927.5" r="8.5" fill="#4E5EA4"/>
<circle cx="168.5" cy="3887.5" r="8.5" fill="#4E5EA4"/>
<circle cx="168.5" cy="3967.5" r="8.5" fill="#4E5EA4"/>
<circle cx="128.5" cy="3847.5" r="8.5" fill="#4E5EA4"/>
<circle cx="47.5" cy="3847.5" r="8.5" fill="#4E5EA4"/>
<circle cx="168.5" cy="3808.5" r="8.5" fill="#4E5EA4"/>
<circle cx="9.5" cy="3967.5" r="8.5" fill="#4E5EA4"/>
<circle cx="168.5" cy="3488.5" r="8.5" fill="#4E5EA4"/>
<circle cx="10.5" cy="3568.5" r="8.5" fill="#4E5EA4"/>
<circle cx="9.5" cy="3727.5" r="8.5" fill="#4E5EA4"/>
<circle cx="168.5" cy="3407.5" r="8.5" fill="#4E5EA4"/>
<circle cx="127.5" cy="3367.5" r="8.5" fill="#4E5EA4"/>
<circle cx="168.5" cy="3328.5" r="8.5" fill="#4E5EA4"/>
<circle cx="88.5" cy="3328.5" r="8.5" fill="#4E5EA4"/>
<circle cx="48.5" cy="3288.5" r="8.5" fill="#4E5EA4"/>
<circle cx="12.5" cy="3328.5" r="8.5" fill="#4E5EA4"/>
<circle cx="9.5" cy="3248.5" r="8.5" fill="#4E5EA4"/>
<circle cx="48.5" cy="3607.5" r="8.5" fill="#4E5EA4"/>
<circle cx="88.5" cy="3727.5" r="8.5" fill="#4E5EA4"/>
<circle cx="128.5" cy="3687.5" r="8.5" fill="#4E5EA4"/>
<circle cx="88.5" cy="3647.5" r="8.5" fill="#4E5EA4"/>
<circle cx="48.5" cy="3688.5" r="8.5" fill="#4E5EA4"/>
<circle cx="10.5" cy="3647.5" r="8.5" fill="#4E5EA4"/>
<circle cx="127.5" cy="4247.5" r="8.5" fill="#4E5EA4"/>
<circle cx="168.5" cy="4207.5" r="8.5" fill="#4E5EA4"/>
<circle cx="88.5" cy="4207.5" r="8.5" fill="#4E5EA4"/>
<circle cx="48.5" cy="4167.5" r="8.5" fill="#4E5EA4"/>
<circle cx="9.5" cy="4128.5" r="8.5" fill="#4E5EA4"/>
<circle cx="88.5" cy="4126.5" r="8.5" fill="#4E5EA4"/>
<circle cx="127.5" cy="4167.5" r="8.5" fill="#4E5EA4"/>
<circle cx="168.5" cy="4126.5" r="8.5" fill="#4E5EA4"/>
<circle cx="127.5" cy="4086.5" r="8.5" fill="#4E5EA4"/>
<circle cx="48.5" cy="4086.5" r="8.5" fill="#4E5EA4"/>
<circle cx="11.5" cy="4047.5" r="8.5" fill="#4E5EA4"/>
<circle cx="88.5" cy="4047.5" r="8.5" fill="#4E5EA4"/>
<circle cx="48.5" cy="4007.5" r="8.5" fill="#4E5EA4"/>
<circle cx="127.5" cy="4007.5" r="8.5" fill="#4E5EA4"/>
<circle cx="168.5" cy="4047.5" r="8.5" fill="#4E5EA4"/>
<circle cx="128.5" cy="4567.5" r="8.5" fill="#4E5EA4"/>
<circle cx="168.5" cy="4607.5" r="8.5" fill="#4E5EA4"/>
<circle cx="168.5" cy="4687.5" r="8.5" fill="#4E5EA4"/>
<circle cx="128.5" cy="4728.5" r="8.5" fill="#4E5EA4"/>
<circle cx="168.5" cy="4528.5" r="8.5" fill="#4E5EA4"/>
<circle cx="88.5" cy="4528.5" r="8.5" fill="#4E5EA4"/>
<circle cx="48.5" cy="4487.5" r="8.5" fill="#4E5EA4"/>
<circle cx="127.5" cy="4487.5" r="8.5" fill="#4E5EA4"/>
<circle cx="88.5" cy="4448.5" r="8.5" fill="#4E5EA4"/>
<circle cx="49.5" cy="4406.5" r="8.5" fill="#4E5EA4"/>
<circle cx="10.5" cy="4448.5" r="8.5" fill="#4E5EA4"/>
<circle cx="8.5" cy="4368.5" r="8.5" fill="#4E5EA4"/>
<circle cx="48.5" cy="4327.5" r="8.5" fill="#4E5EA4"/>
<circle cx="88.5" cy="4367.5" r="8.5" fill="#4E5EA4"/>
<circle cx="127.5" cy="4407.5" r="8.5" fill="#4E5EA4"/>
<circle cx="47.5" cy="4967.5" r="8.5" fill="#4E5EA4"/>
<circle cx="128.5" cy="4967.5" r="8.5" fill="#4E5EA4"/>
<circle cx="88.5" cy="4927.5" r="8.5" fill="#4E5EA4"/>
<circle cx="47.5" cy="4887.5" r="8.5" fill="#4E5EA4"/>
<circle cx="9.5" cy="4848.5" r="8.5" fill="#4E5EA4"/>
<circle cx="88.5" cy="4768.5" r="8.5" fill="#4E5EA4"/>
<circle cx="11.5" cy="4768.5" r="8.5" fill="#4E5EA4"/>
<circle cx="48.5" cy="4728.5" r="8.5" fill="#4E5EA4"/>
<circle cx="88.5" cy="4847.5" r="8.5" fill="#4E5EA4"/>
<circle cx="128.5" cy="4887.5" r="8.5" fill="#4E5EA4"/>
<circle cx="168.5" cy="4847.5" r="8.5" fill="#4E5EA4"/>
<circle cx="168.5" cy="4927.5" r="8.5" fill="#4E5EA4"/>
<circle cx="128.5" cy="4807.5" r="8.5" fill="#4E5EA4"/>
<circle cx="47.5" cy="4807.5" r="8.5" fill="#4E5EA4"/>
<circle cx="168.5" cy="4768.5" r="8.5" fill="#4E5EA4"/>
<circle cx="9.5" cy="4927.5" r="8.5" fill="#4E5EA4"/>
<circle cx="168.5" cy="4448.5" r="8.5" fill="#4E5EA4"/>
<circle cx="10.5" cy="4528.5" r="8.5" fill="#4E5EA4"/>
<circle cx="9.5" cy="4687.5" r="8.5" fill="#4E5EA4"/>
<circle cx="168.5" cy="4367.5" r="8.5" fill="#4E5EA4"/>
<circle cx="127.5" cy="4327.5" r="8.5" fill="#4E5EA4"/>
<circle cx="168.5" cy="4288.5" r="8.5" fill="#4E5EA4"/>
<circle cx="88.5" cy="4288.5" r="8.5" fill="#4E5EA4"/>
<circle cx="48.5" cy="4248.5" r="8.5" fill="#4E5EA4"/>
<circle cx="12.5" cy="4288.5" r="8.5" fill="#4E5EA4"/>
<circle cx="9.5" cy="4208.5" r="8.5" fill="#4E5EA4"/>
<circle cx="48.5" cy="4567.5" r="8.5" fill="#4E5EA4"/>
<circle cx="88.5" cy="4687.5" r="8.5" fill="#4E5EA4"/>
<circle cx="128.5" cy="4647.5" r="8.5" fill="#4E5EA4"/>
<circle cx="88.5" cy="4607.5" r="8.5" fill="#4E5EA4"/>
<circle cx="48.5" cy="4648.5" r="8.5" fill="#4E5EA4"/>
<circle cx="10.5" cy="4607.5" r="8.5" fill="#4E5EA4"/>
</svg>
