<svg width="166" height="166" viewBox="0 0 166 166" fill="none" xmlns="http://www.w3.org/2000/svg">
<path d="M18.1562 31.125C13.8662 31.125 10.375 27.6338 10.375 23.3438C10.375 19.0537 13.8662 15.5625 18.1562 15.5625C22.4463 15.5625 25.9375 19.0537 25.9375 23.3438C25.9375 27.6338 22.4463 31.125 18.1562 31.125ZM18.1562 20.75C16.7245 20.75 15.5625 21.9146 15.5625 23.3438C15.5625 24.7729 16.7245 25.9375 18.1562 25.9375C19.588 25.9375 20.75 24.7729 20.75 23.3438C20.75 21.9146 19.588 20.75 18.1562 20.75Z" fill="white"/>
<path d="M153.031 49.2812C148.741 49.2812 145.25 45.7901 145.25 41.5C145.25 37.2099 148.741 33.7188 153.031 33.7188C157.321 33.7188 160.812 37.2099 160.812 41.5C160.812 45.7901 157.321 49.2812 153.031 49.2812ZM153.031 38.9062C151.6 38.9062 150.438 40.0708 150.438 41.5C150.438 42.9292 151.6 44.0938 153.031 44.0938C154.463 44.0938 155.625 42.9292 155.625 41.5C155.625 40.0708 154.463 38.9062 153.031 38.9062Z" fill="white"/>
<path d="M140.062 160.812C134.341 160.812 129.688 156.159 129.688 150.438C129.688 144.716 134.341 140.062 140.062 140.062C145.784 140.062 150.438 144.716 150.438 150.438C150.438 156.159 145.784 160.812 140.062 160.812ZM140.062 145.25C137.202 145.25 134.875 147.577 134.875 150.438C134.875 153.298 137.202 155.625 140.062 155.625C142.923 155.625 145.25 153.298 145.25 150.438C145.25 147.577 142.923 145.25 140.062 145.25Z" fill="white"/>
<path d="M10.375 70.0312H5.1875V75.2188H10.375V70.0312Z" fill="white"/>
<path d="M67.4375 5.1875H62.25V10.375H67.4375V5.1875Z" fill="white"/>
<path d="M62.25 150.438H57.0625V155.625H62.25V150.438Z" fill="white"/>
<path d="M160.812 106.344H155.625V111.531H160.812V106.344Z" fill="white"/>
<path d="M20.75 145.25C19.3157 145.25 18.1562 144.088 18.1562 142.656V132.281C18.1562 130.85 19.3157 129.688 20.75 129.688C22.1843 129.688 23.3438 130.85 23.3438 132.281V142.656C23.3438 144.088 22.1843 145.25 20.75 145.25Z" fill="white"/>
<path d="M25.9375 140.062H15.5625C14.1282 140.062 12.9688 138.9 12.9688 137.469C12.9688 136.037 14.1282 134.875 15.5625 134.875H25.9375C27.3718 134.875 28.5312 136.037 28.5312 137.469C28.5312 138.9 27.3718 140.062 25.9375 140.062Z" fill="white"/>
<path d="M121.906 20.75C120.472 20.75 119.312 19.588 119.312 18.1562V7.78125C119.312 6.3495 120.472 5.1875 121.906 5.1875C123.341 5.1875 124.5 6.3495 124.5 7.78125V18.1562C124.5 19.588 123.341 20.75 121.906 20.75Z" fill="white"/>
<path d="M127.094 15.5625H116.719C115.284 15.5625 114.125 14.4005 114.125 12.9688C114.125 11.537 115.284 10.375 116.719 10.375H127.094C128.528 10.375 129.688 11.537 129.688 12.9688C129.688 14.4005 128.528 15.5625 127.094 15.5625Z" fill="white"/>
<path d="M83 145.25C48.6769 145.25 20.75 117.323 20.75 83C20.75 48.6769 48.6769 20.75 83 20.75C89.474 20.75 95.8546 21.7408 101.968 23.6939L100.388 28.635C94.7886 26.8453 88.9371 25.9375 83 25.9375C51.5352 25.9375 25.9375 51.5352 25.9375 83C25.9375 114.465 51.5352 140.062 83 140.062C114.465 140.062 140.062 114.465 140.062 83C140.062 64.2731 130.857 46.7212 115.437 36.0479L118.392 31.7812C135.21 43.4246 145.25 62.5716 145.25 83C145.25 117.323 117.323 145.25 83 145.25Z" fill="white"/>
<path d="M110.229 32.8421C108.639 31.9758 106.992 31.1795 105.337 30.4766L107.363 25.7015C109.171 26.4692 110.971 27.3381 112.711 28.2848L110.229 32.8421Z" fill="white"/>
<path d="M62.3019 72.625H25.9375V67.4375H62.3019C63.7051 67.4375 64.8438 66.2988 64.8438 64.8956C64.8438 63.3887 63.7051 62.25 62.3019 62.25H59.6044C55.3428 62.25 51.875 58.7822 51.875 54.5206C51.875 50.1553 55.3428 46.6875 59.6044 46.6875H72.6743C74.0775 46.6875 75.2162 45.5488 75.2162 44.1456C75.2162 42.6387 74.0775 41.5 72.6743 41.5H44.0938V36.3125H72.6769C76.941 36.3125 80.4062 39.7803 80.4062 44.0419C80.4062 48.4072 76.9384 51.875 72.6769 51.875H59.6044C58.2012 51.875 57.0625 53.0137 57.0625 54.4169C57.0625 55.9238 58.2012 57.0625 59.6044 57.0625H62.2993C66.5634 57.0625 70.0287 60.5303 70.0287 64.7919C70.0312 69.1572 66.5634 72.625 62.3019 72.625Z" fill="white"/>
<path d="M75.2706 129.688H44.0938V124.5H75.2706C76.6738 124.5 77.8125 123.361 77.8125 121.958C77.8125 120.451 76.6738 119.312 75.2706 119.312H54.4169C50.1553 119.312 46.6875 115.845 46.6875 111.583C46.6875 107.218 50.1553 103.75 54.4169 103.75C55.9212 103.75 57.0625 102.611 57.0625 101.208C57.0625 99.7012 55.9238 98.5625 54.5206 98.5625H25.9375V93.375H54.5206C58.7848 93.375 62.25 96.8428 62.25 101.104C62.25 105.47 58.7822 108.938 54.5206 108.938C53.0163 108.938 51.875 110.076 51.875 111.479C51.875 112.986 53.0137 114.125 54.4169 114.125H75.268C79.5322 114.125 82.9974 117.593 82.9974 121.854C83 126.22 79.5322 129.688 75.2706 129.688Z" fill="white"/>
<path d="M140.062 95.9688H111.531V101.156H140.062V95.9688Z" fill="white"/>
<path d="M106.344 95.9688H101.156V101.156H106.344V95.9688Z" fill="white"/>
<path d="M95.9688 101.156H77.7347C72.057 101.156 67.4375 96.5368 67.4375 90.8591C67.4375 85.0257 72.057 80.4062 77.7347 80.4062H101.237C104.053 80.4062 106.346 78.1134 106.346 75.2966C106.346 72.3241 104.053 70.0312 101.237 70.0312H98.4847C92.807 70.0312 88.1875 65.4118 88.1875 59.7341C88.1875 53.9007 92.807 49.2812 98.4847 49.2812H132.281V54.4688H98.4847C95.6679 54.4688 93.375 56.7616 93.375 59.5784C93.375 62.5509 95.6679 64.8438 98.4847 64.8438H101.237C106.912 64.8438 111.534 69.4632 111.534 75.1409C111.534 80.9743 106.914 85.5938 101.237 85.5938H77.7347C74.9179 85.5938 72.625 87.8866 72.625 90.7034C72.625 93.6759 74.9179 95.9688 77.7347 95.9688H95.9688V101.156Z" fill="white"/>
</svg>
