<svg width="100" height="100" viewBox="0 0 100 100" fill="none" xmlns="http://www.w3.org/2000/svg">
<path d="M98.296 84.7875H95.7835C91.8543 84.7875 88.6585 81.5916 88.6585 77.6625V75.15C88.6585 74.2291 87.9085 73.4833 86.9918 73.4833C86.0752 73.4833 85.3252 74.2291 85.3252 75.15V77.6625C85.3252 81.5916 82.1293 84.7875 78.2043 84.7875H75.6877C74.7668 84.7875 74.021 85.5333 74.021 86.4541C74.021 87.375 74.771 88.1208 75.6877 88.1208H78.2043C82.1293 88.1208 85.3252 91.3208 85.3252 95.2458V97.7583C85.3252 98.6791 86.0752 99.425 86.9918 99.425C87.9085 99.425 88.6585 98.6791 88.6585 97.7583V95.25C88.6585 91.3208 91.8543 88.125 95.7835 88.125H98.296C99.2168 88.125 99.9627 87.3791 99.9627 86.4583C99.9627 85.5375 99.2168 84.7875 98.296 84.7875ZM86.996 89.625C86.1793 88.35 85.1002 87.2708 83.8252 86.4541C85.1002 85.6375 86.1793 84.5583 86.996 83.2833C87.8127 84.5583 88.896 85.6375 90.171 86.4541C88.8918 87.2708 87.8127 88.3541 86.996 89.625Z" fill="white"/>
<path d="M1.72087 15.2167H4.23337C8.16253 15.2167 11.3584 18.4125 11.3584 22.3417V24.8542C11.3584 25.775 12.1084 26.5208 13.025 26.5208C13.9417 26.5208 14.6917 25.775 14.6917 24.8542V22.3417C14.6917 18.4125 17.8875 15.2167 21.8125 15.2167H24.3292C25.25 15.2167 25.9959 14.4708 25.9959 13.55C25.9959 12.6292 25.2459 11.8833 24.3292 11.8833H21.8125C17.8875 11.8833 14.6917 8.6875 14.6917 4.75833V2.24583C14.6917 1.325 13.9417 0.579163 13.025 0.579163C12.1084 0.579163 11.3584 1.325 11.3584 2.24583V4.75833C11.3584 8.6875 8.16253 11.8833 4.23337 11.8833H1.72087C0.800032 11.8833 0.0541992 12.6292 0.0541992 13.55C0.0541992 14.4708 0.800032 15.2167 1.72087 15.2167ZM13.0209 10.3792C13.8375 11.6542 14.9167 12.7333 16.1917 13.55C14.9209 14.3667 13.8417 15.4458 13.0209 16.7208C12.2042 15.4458 11.125 14.3667 9.85003 13.55C11.125 12.7333 12.2042 11.6542 13.0209 10.3792Z" fill="white"/>
<path d="M86.9376 65.7083C94.4626 59.3125 99.0376 50.3625 99.8293 40.5125C100.621 30.6625 97.5209 21.1 91.1126 13.5875C84.7168 6.06249 75.7709 1.48749 65.9334 0.699988C56.1043 -0.095845 46.5501 3.00832 39.0376 9.41249C28.6626 18.2125 24.1251 31.6833 26.8709 44.8792C20.0459 47.55 15.0501 53.7417 13.9751 61.1417C10.5126 62.8167 8.08761 65.9375 7.29595 69.7C3.03345 70.875 0.0334473 74.6792 0.0334473 79.1792C0.0334473 84.5958 4.45845 89 9.90011 89H30.3084H45.3668H59.4043C69.0584 89 76.9043 81.2458 77.0418 71.6708C80.5584 70.2667 83.8834 68.2875 86.9376 65.7083ZM59.4084 85.6667H45.3709H30.3126H9.90011C6.35845 85.6667 3.37095 82.6958 3.37095 79.1792C3.37095 75.9958 5.75428 73.2167 9.02095 72.6958C9.23761 72.6458 9.52928 72.6458 9.90011 72.6458C11.2834 72.6458 12.5918 73.0708 13.6751 73.875C14.4126 74.4208 15.4626 74.2708 16.0084 73.5292C16.5584 72.7917 16.4043 71.7458 15.6626 71.1958C14.2584 70.15 12.5293 69.4875 10.7959 69.3208C11.6501 66.7958 13.5376 64.7292 16.1501 63.7208C17.0543 63.3167 18.1918 63.1083 19.4418 63.1083C24.5168 63.1083 28.6459 67.2375 28.6459 72.3125C28.6459 73.2333 29.3959 73.9792 30.3126 73.9792C31.2293 73.9792 31.9793 73.2333 31.9793 72.3125C31.9793 65.4 26.3501 59.775 19.4376 59.775C18.7793 59.775 18.1751 59.8583 17.5751 59.9417C19.1918 53.4042 24.5251 48.2458 31.3043 47.0292C32.2376 46.8458 33.2834 46.75 34.4084 46.75C36.9959 46.75 39.5126 47.3417 41.8168 48.45C41.1751 49.0917 40.5709 49.7958 40.0126 50.5667C39.4751 51.3125 39.6418 52.3542 40.3876 52.8958C40.6834 53.1083 41.0209 53.2125 41.3626 53.2125C41.8793 53.2125 42.3876 52.975 42.7126 52.5208C43.5876 51.3125 44.5834 50.3 45.7959 49.4167C46.0793 49.2042 46.3626 48.9917 46.6709 48.8C47.0918 48.5292 47.5584 48.3042 48.0543 48.075C48.5334 47.875 49.0209 47.7125 49.4668 47.5625C50.4626 47.2583 51.5459 47.1 52.6793 47.1C58.2959 47.1 63.1251 51.3292 63.9043 56.9375C63.9084 56.9708 63.9459 56.9917 63.9501 57.025C64.0168 57.3708 64.1793 57.6875 64.4418 57.9292C64.4751 57.9583 64.5126 57.9708 64.5459 58C64.6626 58.0917 64.7709 58.1875 64.9126 58.25C69.7168 60.2458 73.0668 64.6625 73.6501 69.7542L73.7334 71.4125C73.7376 79.2792 67.3126 85.6667 59.4084 85.6667ZM66.9959 55.575C65.6001 48.8 59.6334 43.7792 52.6793 43.7792C51.2126 43.7792 49.8084 43.9833 48.4543 44.4C47.8793 44.5875 47.3043 44.7833 46.6751 45.0458C46.0251 45.3458 45.4209 45.65 44.8918 45.9917C44.8834 45.9958 44.8793 46 44.8709 46.0042C44.7793 46.0625 44.6876 46.1375 44.5918 46.2C41.4918 44.4125 38.0084 43.4208 34.4043 43.4208C33.0584 43.4208 31.7959 43.5375 30.6793 43.7583C30.4709 43.7958 30.2793 43.875 30.0709 43.9208C27.7084 32.0167 31.8334 19.8917 41.1959 11.95C48.0293 6.12082 56.7084 3.29582 65.6668 4.02082C74.6168 4.73749 82.7543 8.89999 88.5709 15.75C94.4043 22.5875 97.2209 31.2875 96.5001 40.2458C95.7834 49.2083 91.6209 57.35 84.7834 63.1625C82.2793 65.275 79.5834 66.9417 76.7459 68.1875C75.7168 62.6917 72.1043 58.0042 66.9959 55.575Z" fill="white"/>
<path d="M47.1417 14.7875C42.8584 14.4417 39.1626 17.7208 38.8584 21.9917C38.5667 26.2583 41.7959 29.975 46.0626 30.2708C46.2501 30.2833 46.4334 30.2917 46.6209 30.2917C48.4876 30.2917 50.2751 29.625 51.7001 28.3875C53.2626 27.0292 54.2084 25.1417 54.3542 23.0708C54.6417 18.8 51.4084 15.0833 47.1417 14.7875ZM49.5042 25.8708C48.6167 26.6458 47.5584 27.0167 46.2917 26.9458C43.8584 26.775 42.0167 24.6542 42.1876 22.2208C42.2709 21.0417 42.8042 19.9625 43.7001 19.1875C44.5084 18.4792 45.5292 18.1 46.5917 18.1C46.6959 18.1 46.8042 18.1042 46.9084 18.1083C46.9084 18.1083 46.9084 18.1083 46.9126 18.1083C49.3459 18.2792 51.1876 20.4 51.0167 22.8333C50.9376 24.0167 50.4001 25.0958 49.5042 25.8708Z" fill="white"/>
<path d="M86.7919 42.9542C86.1419 40.4042 83.5377 38.8583 80.996 39.5C78.4502 40.1417 76.9002 42.7417 77.5419 45.2958C77.8502 46.5292 78.6294 47.5667 79.721 48.2208C80.471 48.6667 81.3085 48.8958 82.1544 48.8958C82.5502 48.8958 82.9419 48.85 83.3294 48.75C85.8835 48.1042 87.4335 45.5083 86.7919 42.9542ZM82.5169 45.5208C82.1419 45.6125 81.7585 45.5542 81.4252 45.3583C81.096 45.1625 80.8627 44.85 80.771 44.4792C80.5752 43.7083 81.0419 42.925 81.8085 42.7333C81.9252 42.7042 82.046 42.6917 82.1627 42.6917C82.8044 42.6917 83.3919 43.125 83.5585 43.775C83.7502 44.5417 83.2835 45.325 82.5169 45.5208Z" fill="white"/>
<path d="M76.5961 52.5C75.7669 52.0041 74.7877 51.8666 73.8544 52.0958C72.9127 52.3333 72.1252 52.9208 71.6336 53.7541C71.1377 54.5833 70.9961 55.5583 71.2294 56.4958C71.4627 57.4333 72.0544 58.225 72.8836 58.7208C73.4544 59.0583 74.0877 59.2333 74.7294 59.2333C75.0294 59.2333 75.3336 59.1958 75.6252 59.1208C77.5627 58.6291 78.7377 56.6583 78.2502 54.7208C78.0127 53.7833 77.4294 52.9958 76.5961 52.5ZM75.0169 56.6958C74.7127 56.775 74.4169 56.725 74.1669 56.5708C73.9086 56.4166 73.7294 56.175 73.6544 55.8791C73.5044 55.2791 73.8669 54.6666 74.4627 54.5166C74.5544 54.4916 74.6502 54.4833 74.7377 54.4833C75.2377 54.4833 75.6961 54.825 75.8252 55.3333C75.9794 55.9333 75.6169 56.5458 75.0169 56.6958Z" fill="white"/>
<path d="M68.7043 12.1583C69.2335 11.9541 69.821 11.9708 70.3502 12.2125C70.871 12.45 71.271 12.875 71.4752 13.4166C71.6793 13.9541 71.6585 14.5375 71.421 15.0625C71.1835 15.5875 70.7585 15.9875 70.221 16.1875L69.9585 16.2625C69.0627 16.4875 68.521 17.3916 68.746 18.2833C68.9335 19.0416 69.6127 19.5458 70.3627 19.5458C70.496 19.5458 70.6293 19.5291 70.7668 19.4958C70.9752 19.4416 71.1877 19.3791 71.3918 19.3041C72.7627 18.7875 73.8543 17.7666 74.4543 16.4333C75.0627 15.1 75.1043 13.6083 74.5877 12.2416C74.0752 10.8708 73.0585 9.78331 71.721 9.17915C70.3835 8.57081 68.8877 8.52498 67.5418 9.03748C67.321 9.11664 67.121 9.21248 66.9252 9.31248C66.1043 9.73331 65.9085 10.6833 66.3293 11.5C66.7543 12.3208 67.8877 12.575 68.7043 12.1583Z" fill="white"/>
<path d="M42.7084 37.1416C41.1917 36.4625 39.5084 36.4208 38.1584 36.9583C37.8167 37.0416 37.5334 37.1833 37.3251 37.2875L37.3084 37.2958C36.5084 37.6958 36.4167 38.5458 36.7792 39.3583C37.1376 40.1708 38.3126 40.4583 39.1542 40.1333C39.8626 39.8541 40.6459 39.8666 41.3459 40.1833C42.0501 40.5 42.5876 41.075 42.8542 41.7875C42.9459 42.05 43.0042 42.3625 43.0042 42.6041C43.0042 43.525 43.7542 44.2708 44.6709 44.2708C45.5876 44.2708 46.3376 43.525 46.3376 42.6041C46.3376 41.975 46.2126 41.2833 45.9751 40.6333C45.3917 39.0625 44.2292 37.8208 42.7084 37.1416Z" fill="white"/>
<path d="M84.0584 26.0833C84.4334 25.9292 84.8625 26.1333 85.0125 26.5125C85.1542 26.8917 84.9625 27.3167 84.5917 27.4583L84.5042 27.4833C83.6084 27.6958 83.0542 28.6 83.2709 29.4917C83.4542 30.2583 84.1334 30.7708 84.8917 30.7708C85.0167 30.7708 85.15 30.7583 85.2792 30.725C85.35 30.7083 85.6959 30.6042 85.7625 30.5792C87.8584 29.7875 88.925 27.4375 88.1292 25.3333C87.3459 23.2375 84.9792 22.1708 82.8667 22.9667C82.8167 22.9833 82.5042 23.1292 82.4584 23.15C81.6334 23.5625 81.3542 24.5375 81.7667 25.3583C82.1792 26.1792 83.2375 26.4875 84.0584 26.0833Z" fill="white"/>
<path d="M71.05 32.6916C70.275 30.6291 68.7459 28.9958 66.7417 28.0916C64.7334 27.1875 62.4917 27.1166 60.4459 27.8875C60.1209 28.0083 59.8125 28.15 59.5167 28.3041C58.7042 28.7333 58.3875 29.7416 58.8209 30.5583C59.25 31.375 60.2667 31.6833 61.0709 31.2541C61.2417 31.1666 61.4209 31.0791 61.6167 31.0083C62.8375 30.5416 64.1625 30.5875 65.3625 31.1291C66.5542 31.6708 67.4667 32.6416 67.9292 33.8666C68.3875 35.0916 68.35 36.425 67.8084 37.6166C67.2667 38.8083 66.2959 39.7208 65.0667 40.1833C64.875 40.2541 64.6834 40.3125 64.4917 40.3583C63.5959 40.5791 63.05 41.4791 63.2709 42.375C63.4584 43.1333 64.1417 43.6416 64.8917 43.6416C65.0209 43.6416 65.1542 43.6291 65.2917 43.5916C65.6125 43.5125 65.9334 43.4166 66.2459 43.3C68.3084 42.5208 69.9417 40.9917 70.8459 38.9875C71.7584 36.9875 71.8292 34.75 71.05 32.6916Z" fill="white"/>
</svg>
