<svg height='100px' width='100px'  fill="#000000" xmlns="http://www.w3.org/2000/svg" xmlns:xlink="http://www.w3.org/1999/xlink" version="1.1" x="0px" y="0px" viewBox="0 0 24 24" style="enable-background:new 0 0 24 24;" xml:space="preserve"><g><path d="M14.652,12.646h-1.465c-0.05,0.137-0.123,0.263-0.216,0.375l0.732,1.268C14.209,13.874,14.545,13.292,14.652,12.646z"></path><path d="M9.347,12.643c0.106,0.646,0.442,1.229,0.948,1.644l0.732-1.268c-0.094-0.112-0.167-0.238-0.217-0.375H9.347z"></path><path d="M12.218,10.961l0.732-1.268c-0.613-0.23-1.285-0.23-1.898,0l0.732,1.268C11.929,10.936,12.076,10.936,12.218,10.961z"></path><polygon points="10.527,15.139 10.528,15.14 10.528,15.139  "></polygon><path d="M17.961,18.215h2.583v-1.089H3.457v1.089h2.582c0.236,0,0.428,0.192,0.428,0.429c0,0.236-0.192,0.429-0.428,0.429H3.457   v1.234h2.582c0.236,0,0.428,0.192,0.428,0.429c0,0.236-0.192,0.429-0.428,0.429H3.457v1.089h17.087v-1.089h-2.583   c-0.236,0-0.428-0.192-0.428-0.429c0-0.236,0.192-0.429,0.428-0.429h2.583v-1.234h-2.583c-0.236,0-0.428-0.192-0.428-0.429   C17.533,18.407,17.725,18.215,17.961,18.215z"></path><path d="M17.961,2.837h2.583V1.748H3.457v1.089h2.582c0.236,0,0.428,0.192,0.428,0.429S6.275,3.694,6.039,3.694H3.457v1.234h2.582   c0.236,0,0.428,0.192,0.428,0.429c0,0.236-0.192,0.429-0.428,0.429H3.457v1.088h17.087V5.786h-2.583   c-0.236,0-0.428-0.192-0.428-0.429c0-0.236,0.192-0.429,0.428-0.429h2.583V3.694h-2.583c-0.236,0-0.428-0.192-0.428-0.429   S17.725,2.837,17.961,2.837z"></path><polygon points="10.956,11.931 10.956,11.932 10.963,11.933  "></polygon><path d="M2.602,8.583H8.19C8.48,8.257,8.81,7.97,9.173,7.728h-6.57C2.491,7.727,2.384,7.772,2.306,7.851   C2.222,7.93,2.175,8.04,2.175,8.155C2.175,8.391,2.366,8.583,2.602,8.583z"></path><path d="M7.728,12c0,2.359,1.912,4.272,4.272,4.272c2.359,0,4.272-1.912,4.272-4.272C16.269,9.642,14.358,7.731,12,7.728   C9.641,7.728,7.728,9.641,7.728,12z M10.226,9.125c1.097-0.629,2.458-0.631,3.552,0.002c0.101,0.06,0.173,0.153,0.203,0.263   c0.03,0.112,0.014,0.232-0.044,0.33l-0.968,1.677c0.048,0.058,0.09,0.117,0.127,0.181c0.037,0.064,0.067,0.13,0.093,0.198h1.933   c0.099,0,0.195,0.033,0.272,0.096c0.101,0.078,0.164,0.207,0.164,0.34c-0.003,1.265-0.684,2.444-1.779,3.076   c-0.064,0.038-0.14,0.058-0.217,0.058c-0.043,0-0.081-0.005-0.118-0.016c-0.104-0.028-0.2-0.101-0.258-0.201l-0.967-1.675   c-0.147,0.026-0.294,0.025-0.44-0.001l-0.966,1.673c-0.048,0.084-0.124,0.15-0.215,0.186c-0.128,0.051-0.268,0.04-0.381-0.027   c-1.094-0.636-1.773-1.815-1.773-3.078c0-0.239,0.194-0.434,0.434-0.434h1.94c0.051-0.137,0.124-0.265,0.218-0.375l-0.969-1.677   c-0.049-0.085-0.067-0.185-0.053-0.282C10.032,9.308,10.111,9.191,10.226,9.125z"></path><path d="M11.805,11.869c-0.091,0.053-0.157,0.138-0.184,0.24c-0.027,0.101-0.013,0.208,0.04,0.3   c0.022,0.039,0.051,0.073,0.086,0.101l0.013,0.01c0.019,0.015,0.031,0.022,0.043,0.029l0.013,0.008   c0.12,0.063,0.267,0.063,0.383-0.006l0.055-0.03c0.085-0.073,0.142-0.19,0.143-0.313c-0.001-0.072-0.019-0.137-0.053-0.197   C12.24,11.833,11.987,11.766,11.805,11.869z"></path><path d="M20.543,14.563V9.437h-4.111c0.925,1.584,0.925,3.542,0,5.126H20.543z"></path><path d="M21.398,7.728h-6.57C15.19,7.97,15.52,8.257,15.81,8.583h5.588c0.111,0.001,0.219-0.043,0.296-0.123   c0.084-0.079,0.131-0.189,0.131-0.304C21.825,7.92,21.634,7.728,21.398,7.728z"></path><path d="M21.398,15.417H15.81c-0.29,0.325-0.62,0.612-0.982,0.854h6.57c0.111,0.001,0.219-0.043,0.296-0.123   c0.084-0.079,0.131-0.189,0.131-0.304C21.825,15.609,21.634,15.417,21.398,15.417z"></path><path d="M2.602,0.894h18.796c0.236,0,0.427-0.191,0.427-0.427c0-0.236-0.191-0.427-0.427-0.427H2.602   c-0.236,0-0.427,0.191-0.427,0.427C2.175,0.702,2.366,0.894,2.602,0.894z"></path><path d="M3.457,9.437v5.126h4.111c-0.925-1.584-0.925-3.542,0-5.126H3.457z"></path><path d="M21.398,23.106H2.602c-0.236,0-0.427,0.191-0.427,0.427c0,0.236,0.191,0.427,0.427,0.427h18.796   c0.236,0,0.427-0.191,0.427-0.427C21.825,23.298,21.634,23.106,21.398,23.106z"></path><path d="M2.602,16.272h6.57C8.81,16.03,8.48,15.743,8.19,15.417H2.602c-0.111-0.001-0.219,0.043-0.296,0.123   c-0.084,0.079-0.131,0.189-0.131,0.304C2.175,16.08,2.366,16.272,2.602,16.272z"></path></g></svg>