<svg height='100px' width='100px'  fill="#000000" xmlns="http://www.w3.org/2000/svg" viewBox="0 0 64 64" x="0px" y="0px"><title>smart, cpu, microchip, processor, internet</title><g><path d="M15,49H49V15H15Zm17-9a2,2,0,1,1,2-2A2.002,2.002,0,0,1,32,40Zm4.251-4.8369a1,1,0,0,1-1.4141.0078,4.12,4.12,0,0,0-5.6738,0,1,1,0,1,1-1.4063-1.4219,6.0217,6.0217,0,0,1,8.4864,0A1,1,0,0,1,36.251,35.1631ZM39.0645,32.35a1,1,0,0,1-1.4141-.0049,7.9807,7.9807,0,0,0-11.3008,0,1,1,0,1,1-1.4189-1.4092,9.98,9.98,0,0,1,14.1386,0A1,1,0,0,1,39.0645,32.35ZM22.103,28.103a13.988,13.988,0,0,1,19.794,0,1,1,0,0,1-1.4141,1.4141,11.9885,11.9885,0,0,0-16.9658,0A1,1,0,0,1,22.103,28.103ZM58,21a1,1,0,0,0,0-2H55V17h3a1,1,0,0,0,0-2H55V10a1,1,0,0,0-1-1H49V6a1,1,0,0,0-2,0V9H45V6a1,1,0,0,0-2,0V9H41V6a1,1,0,0,0-2,0V9H37V6a1,1,0,0,0-2,0V9H33V6a1,1,0,0,0-2,0V9H29V6a1,1,0,0,0-2,0V9H25V6a1,1,0,0,0-2,0V9H21V6a1,1,0,0,0-2,0V9H17V6a1,1,0,0,0-2,0V9H10a1,1,0,0,0-1,1v5H6a1,1,0,0,0,0,2H9v2H6a1,1,0,0,0,0,2H9v2H6a1,1,0,0,0,0,2H9v2H6a1,1,0,0,0,0,2H9v2H6a1,1,0,0,0,0,2H9v2H6a1,1,0,0,0,0,2H9v2H6a1,1,0,0,0,0,2H9v2H6a1,1,0,0,0,0,2H9v2H6a1,1,0,0,0,0,2H9v5a1,1,0,0,0,1,1h5v3a1,1,0,0,0,2,0V55h2v3a1,1,0,0,0,2,0V55h2v3a1,1,0,0,0,2,0V55h2v3a1,1,0,0,0,2,0V55h2v3a1,1,0,0,0,2,0V55h2v3a1,1,0,0,0,2,0V55h2v3a1,1,0,0,0,2,0V55h2v3a1,1,0,0,0,2,0V55h2v3a1,1,0,0,0,2,0V55h5a1,1,0,0,0,1-1V49h3a1,1,0,0,0,0-2H55V45h3a1,1,0,0,0,0-2H55V41h3a1,1,0,0,0,0-2H55V37h3a1,1,0,0,0,0-2H55V33h3a1,1,0,0,0,0-2H55V29h3a1,1,0,0,0,0-2H55V25h3a1,1,0,0,0,0-2H55V21ZM51,50a1,1,0,0,1-1,1H14a1,1,0,0,1-1-1V14a1,1,0,0,1,1-1H50a1,1,0,0,1,1,1Z"></path></g></svg>