<svg height='100px' width='100px'  fill="#000000" xmlns="http://www.w3.org/2000/svg" xmlns:xlink="http://www.w3.org/1999/xlink" version="1.1" x="0px" y="0px" viewBox="0 0 95 95" enable-background="new 0 0 95 95" xml:space="preserve"><path d="M66.2,56.3v38.2h24.2V56.3H66.2z M84.9,89H71.7V61.8h13.2V89z"></path><path d="M79.5,50.2V26.3v-5.5V0.5H30.3h-5.5H4.6v62.6v3.1V88h53.9V68.5v-5.5V50.2H79.5z M74,44.7H58.6V26.3H74V44.7z M30.3,6H74  v14.8H58.6h-5.5H30.3V6z M10.1,6h14.7v14.8v5.5v34.4H10.1V6z M53.1,82.5h-43v-14h14.7h28.3V82.5z M53.1,63.1H30.3V26.3h22.8v23.9  V63.1z"></path></svg>