<svg height='100px' width='100px'  fill="#000000" xmlns="http://www.w3.org/2000/svg" xmlns:xlink="http://www.w3.org/1999/xlink" version="1.1" x="0px" y="0px" viewBox="0 0 24 24" style="enable-background:new 0 0 24 24;" xml:space="preserve"><g><path d="M23.591,20.349h-0.603c-0.943,0-1.71-0.767-1.71-1.71v-0.603c0-0.221-0.18-0.4-0.4-0.4s-0.4,0.179-0.4,0.4v0.603   c0,0.943-0.767,1.71-1.709,1.71h-0.604c-0.221,0-0.4,0.179-0.4,0.4s0.18,0.4,0.4,0.4h0.604c0.942,0,1.709,0.768,1.709,1.71v0.603   c0,0.221,0.18,0.4,0.4,0.4s0.4-0.179,0.4-0.4V22.86c0-0.943,0.767-1.71,1.71-1.71h0.603c0.221,0,0.4-0.179,0.4-0.4   S23.812,20.349,23.591,20.349z M20.879,21.51c-0.196-0.306-0.455-0.565-0.761-0.761c0.306-0.196,0.565-0.455,0.761-0.761   c0.196,0.306,0.456,0.565,0.762,0.761C21.334,20.945,21.075,21.205,20.879,21.51z"></path><path d="M0.413,3.652h0.603c0.943,0,1.71,0.767,1.71,1.71v0.603c0,0.221,0.18,0.4,0.4,0.4s0.4-0.179,0.4-0.4V5.362   c0-0.943,0.767-1.71,1.709-1.71h0.604c0.221,0,0.4-0.179,0.4-0.4s-0.18-0.4-0.4-0.4H5.235c-0.942,0-1.709-0.767-1.709-1.71V0.539   c0-0.221-0.18-0.4-0.4-0.4s-0.4,0.179-0.4,0.4v0.603c0,0.943-0.767,1.71-1.71,1.71H0.413c-0.221,0-0.4,0.179-0.4,0.4   S0.192,3.652,0.413,3.652z M3.125,2.491c0.196,0.306,0.455,0.565,0.761,0.761C3.581,3.448,3.322,3.707,3.125,4.013   C2.929,3.707,2.67,3.448,2.364,3.252C2.67,3.056,2.929,2.797,3.125,2.491z"></path><path d="M20.865,15.77c1.806-1.535,2.904-3.683,3.094-6.047s-0.554-4.659-2.092-6.462c-1.535-1.806-3.682-2.904-6.043-3.093   c-2.359-0.191-4.652,0.554-6.455,2.091C6.879,4.371,5.79,7.604,6.449,10.771c-1.638,0.641-2.837,2.127-3.095,3.903   c-0.831,0.402-1.413,1.151-1.603,2.054c-1.023,0.282-1.743,1.195-1.743,2.275c0,1.3,1.062,2.357,2.368,2.357h4.898h3.614h3.369   c2.317,0,4.2-1.861,4.233-4.159C19.334,16.864,20.132,16.389,20.865,15.77z M14.258,20.56h-3.369H7.275H2.376   c-0.85,0-1.567-0.713-1.567-1.557c0-0.764,0.572-1.431,1.356-1.556c0.052-0.012,0.122-0.012,0.211-0.012   c0.332,0,0.646,0.102,0.906,0.295c0.177,0.131,0.429,0.095,0.56-0.083c0.132-0.177,0.095-0.428-0.083-0.56   c-0.337-0.251-0.752-0.41-1.168-0.45c0.205-0.606,0.658-1.102,1.285-1.344c0.217-0.097,0.49-0.147,0.79-0.147   c1.218,0,2.209,0.991,2.209,2.209c0,0.221,0.18,0.4,0.4,0.4s0.4-0.179,0.4-0.4c0-1.659-1.351-3.009-3.01-3.009   c-0.158,0-0.303,0.02-0.447,0.04c0.388-1.569,1.668-2.807,3.295-3.099c0.224-0.044,0.475-0.067,0.745-0.067   c0.621,0,1.225,0.142,1.778,0.408c-0.154,0.154-0.299,0.323-0.433,0.508c-0.129,0.179-0.089,0.429,0.09,0.559   c0.071,0.051,0.152,0.076,0.234,0.076c0.124,0,0.246-0.057,0.324-0.166c0.21-0.29,0.449-0.533,0.74-0.745   c0.068-0.051,0.136-0.102,0.21-0.148c0.101-0.065,0.213-0.119,0.332-0.174c0.115-0.048,0.232-0.087,0.339-0.123   c0.239-0.073,0.499-0.111,0.771-0.111c1.348,0,2.507,1.015,2.694,2.361c0.001,0.008,0.01,0.013,0.011,0.021   c0.016,0.083,0.055,0.159,0.118,0.217c0.008,0.007,0.017,0.01,0.025,0.017c0.028,0.022,0.054,0.045,0.088,0.06   c1.153,0.479,1.957,1.539,2.097,2.761l0.02,0.398C17.697,19.027,16.155,20.56,14.258,20.56z M16.079,13.338   c-0.335-1.626-1.767-2.831-3.436-2.831c-0.352,0-0.689,0.049-1.014,0.149c-0.138,0.045-0.276,0.092-0.427,0.155   c-0.156,0.072-0.301,0.145-0.428,0.227c-0.002,0.001-0.003,0.002-0.005,0.003l0,0l0,0c-0.022,0.014-0.044,0.032-0.067,0.047   c-0.744-0.429-1.58-0.667-2.445-0.667c-0.323,0-0.626,0.028-0.894,0.081c-0.05,0.009-0.096,0.028-0.146,0.039   C6.65,7.684,7.64,4.774,9.887,2.868c1.64-1.399,3.723-2.077,5.873-1.903c2.148,0.172,4.101,1.171,5.497,2.815   c1.4,1.641,2.076,3.729,1.903,5.879c-0.172,2.151-1.171,4.105-2.812,5.5c-0.601,0.507-1.248,0.907-1.929,1.206   C18.172,15.046,17.305,13.921,16.079,13.338z"></path><path d="M11.314,3.549c-1.028-0.083-1.915,0.704-1.988,1.729c-0.07,1.024,0.705,1.916,1.729,1.987   c0.045,0.003,0.089,0.005,0.134,0.005c0.448,0,0.877-0.16,1.219-0.457c0.375-0.326,0.602-0.779,0.637-1.276   C13.114,4.512,12.338,3.62,11.314,3.549z M11.881,6.209c-0.213,0.186-0.467,0.275-0.771,0.258c-0.584-0.041-1.026-0.55-0.985-1.134   c0.02-0.283,0.148-0.542,0.363-0.728c0.194-0.17,0.439-0.261,0.694-0.261c0.025,0,0.051,0.001,0.076,0.002c0,0,0,0,0.001,0   c0.584,0.041,1.026,0.55,0.985,1.134C12.225,5.764,12.096,6.023,11.881,6.209z"></path><path d="M20.83,10.309c-0.156-0.612-0.781-0.983-1.391-0.829c-0.611,0.154-0.983,0.778-0.829,1.391   c0.074,0.296,0.261,0.545,0.523,0.702c0.18,0.107,0.381,0.162,0.584,0.162c0.095,0,0.189-0.011,0.282-0.035   C20.612,11.545,20.984,10.922,20.83,10.309z M19.804,10.925c-0.09,0.022-0.182,0.008-0.262-0.039   c-0.079-0.047-0.135-0.122-0.157-0.211c-0.047-0.185,0.065-0.373,0.249-0.419c0.028-0.007,0.057-0.01,0.085-0.01   c0.154,0,0.295,0.104,0.335,0.26C20.1,10.69,19.988,10.878,19.804,10.925z"></path><path d="M18.383,12.6c-0.199-0.119-0.434-0.152-0.658-0.097c-0.226,0.057-0.415,0.198-0.533,0.398   c-0.119,0.199-0.153,0.433-0.097,0.658s0.198,0.415,0.397,0.534c0.137,0.081,0.289,0.123,0.443,0.123   c0.072,0,0.145-0.009,0.215-0.027c0.465-0.118,0.747-0.591,0.63-1.056C18.723,12.908,18.583,12.719,18.383,12.6z M18.004,13.607   c-0.073,0.019-0.144,0.007-0.204-0.03c-0.062-0.037-0.105-0.095-0.123-0.166c-0.036-0.144,0.051-0.291,0.194-0.327   c0.022-0.006,0.045-0.008,0.066-0.008c0.12,0,0.23,0.082,0.261,0.204C18.235,13.424,18.148,13.571,18.004,13.607z"></path><path d="M16.489,2.918c0.127-0.049,0.268-0.045,0.395,0.013c0.125,0.057,0.221,0.159,0.27,0.289   c0.049,0.129,0.044,0.269-0.013,0.395s-0.159,0.222-0.288,0.27L16.79,3.903c-0.215,0.054-0.345,0.271-0.291,0.485   c0.045,0.182,0.208,0.303,0.388,0.303c0.032,0,0.064-0.004,0.097-0.012c0.05-0.013,0.101-0.028,0.15-0.046   c0.329-0.124,0.591-0.369,0.735-0.689c0.146-0.32,0.156-0.678,0.032-1.006c-0.123-0.329-0.367-0.59-0.688-0.735   c-0.321-0.146-0.68-0.157-1.003-0.034c-0.053,0.019-0.101,0.042-0.148,0.066c-0.197,0.101-0.244,0.329-0.143,0.525   C16.021,2.957,16.293,3.018,16.489,2.918z"></path><path d="M10.25,8.914C9.886,8.751,9.482,8.741,9.158,8.87C9.076,8.89,9.008,8.924,8.958,8.949L8.954,8.951   C8.762,9.047,8.74,9.251,8.827,9.446c0.086,0.195,0.368,0.264,0.57,0.186c0.17-0.067,0.358-0.064,0.526,0.012   c0.169,0.076,0.298,0.214,0.362,0.385c0.022,0.063,0.036,0.138,0.036,0.196c0,0.221,0.18,0.4,0.4,0.4s0.4-0.179,0.4-0.4   c0-0.151-0.03-0.317-0.087-0.473C10.894,9.375,10.615,9.077,10.25,8.914z"></path><path d="M20.174,6.26c0.09-0.037,0.193,0.012,0.229,0.103c0.034,0.091-0.012,0.193-0.101,0.227l-0.021,0.006   c-0.215,0.051-0.348,0.268-0.296,0.482c0.044,0.184,0.207,0.307,0.389,0.307c0.03,0,0.062-0.003,0.093-0.011   c0.017-0.004,0.1-0.029,0.116-0.035c0.503-0.19,0.759-0.754,0.568-1.259c-0.188-0.503-0.756-0.759-1.263-0.568   c-0.012,0.004-0.087,0.039-0.098,0.044c-0.198,0.099-0.265,0.333-0.166,0.53S19.977,6.357,20.174,6.26z"></path><path d="M17.052,7.846c-0.186-0.495-0.553-0.887-1.034-1.104c-0.482-0.217-1.02-0.234-1.511-0.049   c-0.078,0.029-0.152,0.063-0.223,0.1c-0.195,0.103-0.271,0.345-0.167,0.541c0.103,0.196,0.347,0.27,0.54,0.167   c0.041-0.021,0.084-0.042,0.131-0.059c0.293-0.112,0.611-0.101,0.899,0.029c0.286,0.13,0.505,0.363,0.616,0.657   c0.11,0.294,0.101,0.614-0.029,0.9c-0.13,0.286-0.363,0.505-0.658,0.616c-0.046,0.017-0.092,0.031-0.138,0.042   c-0.215,0.053-0.346,0.269-0.293,0.484c0.045,0.182,0.209,0.304,0.389,0.304c0.031,0,0.063-0.003,0.096-0.012   c0.077-0.019,0.154-0.042,0.229-0.07c0.495-0.187,0.887-0.554,1.104-1.035C17.222,8.877,17.239,8.34,17.052,7.846z"></path></g></svg>