<svg width="113" height="113" viewBox="0 0 113 113" fill="none" xmlns="http://www.w3.org/2000/svg">
<path d="M75.5564 93.2126L69.894 98.875H53.8516C53.6174 98.875 53.3929 98.782 53.2273 98.6164C53.0618 98.4509 52.9688 98.2263 52.9688 97.9922C52.9688 97.7581 53.0618 97.5335 53.2273 97.3679C53.3929 97.2024 53.6174 97.1094 53.8516 97.1094H58.2656C59.6704 97.1094 61.0177 96.5513 62.0111 95.558C63.0044 94.5646 63.5625 93.2173 63.5625 91.8125C63.5625 90.4077 63.0044 89.0604 62.0111 88.067C61.0177 87.0737 59.6704 86.5156 58.2656 86.5156H45.9062C45.438 86.5157 44.989 86.7018 44.658 87.033L39.8784 91.8125H3.53125V95.3438H40.6094C41.0776 95.3436 41.5266 95.1576 41.8577 94.8264L46.6372 90.0469H58.2656C58.7339 90.0469 59.183 90.2329 59.5141 90.564C59.8452 90.8951 60.0312 91.3442 60.0312 91.8125C60.0312 92.2808 59.8452 92.7299 59.5141 93.061C59.183 93.3921 58.7339 93.5781 58.2656 93.5781H53.8516C52.6809 93.5781 51.5581 94.0432 50.7304 94.871C49.9026 95.6988 49.4375 96.8215 49.4375 97.9922C49.4375 99.1629 49.9026 100.286 50.7304 101.113C51.5581 101.941 52.6809 102.406 53.8516 102.406H70.625C71.0932 102.406 71.5423 102.22 71.8733 101.889L78.053 95.7092C78.4251 95.3394 78.9285 95.1318 79.4531 95.1318C79.9778 95.1318 80.4811 95.3394 80.8533 95.7092C81.0374 95.8929 81.1836 96.1112 81.2833 96.3514C81.383 96.5917 81.4343 96.8492 81.4343 97.1094C81.4343 97.3695 81.383 97.6271 81.2833 97.8673C81.1836 98.1076 81.0374 98.3258 80.8533 98.5095L73.4253 105.938H3.53125V109.469H74.1562C74.6245 109.469 75.0735 109.283 75.4045 108.951L83.3499 101.006C84.3833 99.9726 84.9639 98.5709 84.9639 97.1094C84.9639 95.6478 84.3833 94.2461 83.3499 93.2126C82.3164 92.1792 80.9147 91.5986 79.4531 91.5986C77.9916 91.5986 76.5899 92.1792 75.5564 93.2126Z" fill="#162A71"/>
<path d="M101.371 74.1562L91.8124 64.5971V47.6719H107.703C107.992 47.672 108.276 47.6014 108.531 47.4662C108.786 47.3311 109.003 47.1355 109.165 46.8967C109.327 46.6578 109.428 46.3829 109.459 46.0961C109.49 45.8092 109.45 45.5191 109.343 45.2512L102.281 27.5949C102.15 27.267 101.923 26.9859 101.631 26.788C101.339 26.59 100.994 26.4842 100.641 26.4844H79.453C79.1645 26.4843 78.8803 26.5549 78.6254 26.69C78.3705 26.8251 78.1526 27.0207 77.9907 27.2596C77.8289 27.4984 77.728 27.7733 77.697 28.0602C77.666 28.347 77.7057 28.6371 77.8128 28.905L84.8753 46.5613C85.0063 46.8892 85.2326 47.1703 85.525 47.3683C85.8174 47.5662 86.1624 47.672 86.5155 47.6719H88.2812V64.5971L77.6874 75.1909L58.2655 55.769V49.4375H67.0937C69.4342 49.4347 71.678 48.5037 73.333 46.8487C74.988 45.1937 75.919 42.9499 75.9218 40.6094C75.9218 40.1411 75.7358 39.692 75.4046 39.3609C75.0735 39.0298 74.6244 38.8437 74.1562 38.8437H63.5624C61.6459 38.8502 59.7847 39.4868 58.2655 40.6553V33.501C59.7847 34.6695 61.6459 35.306 63.5624 35.3125C65.4187 35.3178 67.2292 34.7362 68.735 33.6506C70.2408 32.565 71.3648 31.0311 71.9463 29.2683C72.5279 27.5054 72.5372 25.6038 71.9729 23.8354C71.4086 22.0669 70.2997 20.5221 68.8045 19.4219C69.8265 18.6708 70.674 17.7078 71.2891 16.5987C71.9043 15.4897 72.2724 14.2608 72.3685 12.9962C72.4645 11.7316 72.2861 10.4612 71.8456 9.27194C71.405 8.08271 70.7126 7.00273 69.8158 6.10596C68.919 5.20918 67.8391 4.5168 66.6498 4.07622C65.4606 3.63563 64.1902 3.45725 62.9256 3.55329C61.661 3.64933 60.4321 4.01752 59.3231 4.63264C58.214 5.24777 57.251 6.09531 56.4999 7.11723C55.7488 6.09531 54.7858 5.24777 53.6768 4.63264C52.5677 4.01752 51.3388 3.64933 50.0742 3.55329C48.8096 3.45725 47.5392 3.63563 46.35 4.07622C45.1607 4.5168 44.0808 5.20918 43.184 6.10596C42.2872 7.00273 41.5948 8.08271 41.1543 9.27194C40.7137 10.4612 40.5353 11.7316 40.6313 12.9962C40.7274 14.2608 41.0956 15.4897 41.7107 16.5987C42.3258 17.7078 43.1734 18.6708 44.1953 19.4219C43.2492 20.1056 42.4487 20.9709 41.8405 21.9673C41.2323 22.9636 40.8285 24.071 40.6527 25.225C40.4769 26.379 40.5325 27.5565 40.8165 28.6887C41.1004 29.821 41.6069 30.8854 42.3064 31.8199C43.0059 32.7544 43.8845 33.5403 44.8908 34.1317C45.8972 34.7232 47.0113 35.1084 48.168 35.2648C49.3248 35.4213 50.5012 35.3459 51.6285 35.0431C52.7559 34.7403 53.8116 34.216 54.7343 33.501V55.769L35.3124 75.1909L24.7187 64.5971V46.1393C24.8799 45.968 25.0046 45.7658 25.0854 45.5448C25.1661 45.3239 25.2011 45.0888 25.1883 44.8539L24.9111 40.2562L40.4186 49.2097C40.7739 49.4146 41.1894 49.4895 41.5939 49.4214C41.9983 49.3533 42.3665 49.1465 42.6351 48.8366C42.9037 48.5266 43.056 48.1328 43.0659 47.7228C43.0758 47.3127 42.9426 46.9121 42.6892 46.5895L30.9301 31.6453C30.6565 31.2969 30.2618 31.0642 29.8246 30.9932C29.3873 30.9222 28.9393 31.0182 28.5695 31.2621L24.7187 33.7958V15.8906C24.719 15.4799 24.5762 15.082 24.3148 14.7652C24.0534 14.4484 23.6898 14.2327 23.2865 14.1551C22.8832 14.0776 22.4655 14.143 22.1052 14.3402C21.745 14.5374 21.4648 14.854 21.3128 15.2356L14.2503 32.8918C14.0832 33.3043 14.0781 33.7646 14.2359 34.1807C14.3937 34.5968 14.7028 34.938 15.1013 35.1359L19.2276 37.1982L3.72185 46.1428C3.3854 46.3371 3.12242 46.6369 2.97366 46.9958C2.82491 47.3547 2.79868 47.7527 2.89905 48.128C2.99941 48.5033 3.22077 48.8351 3.52881 49.0718C3.83686 49.3085 4.21439 49.4371 4.6029 49.4375C4.68738 49.4378 4.77177 49.4319 4.85538 49.4198L21.1874 47.0663V64.5971L11.6283 74.1562H3.53116V77.6875H12.3593C12.8275 77.6874 13.2765 77.5013 13.6076 77.1702L22.953 67.8247L32.8158 77.6875L25.236 85.2673C24.9891 85.5142 24.821 85.8288 24.7529 86.1713C24.6848 86.5137 24.7198 86.8687 24.8534 87.1912C24.987 87.5138 25.2133 87.7895 25.5036 87.9836C25.7938 88.1776 26.1351 88.2812 26.4843 88.2812H37.078C37.5463 88.2811 37.9953 88.095 38.3263 87.7639L43.1059 82.9844H65.328C65.7963 82.9844 66.2454 83.1704 66.5765 83.5015C66.9076 83.8326 67.0937 84.2817 67.0937 84.75V90.0469C67.0937 90.5151 67.2797 90.9642 67.6108 91.2953C67.9419 91.6265 68.391 91.8125 68.8593 91.8125H72.3905C72.8588 91.8124 73.3078 91.6263 73.6388 91.2952L76.6527 88.2812H86.5155C86.8647 88.2812 87.206 88.1776 87.4963 87.9836C87.7865 87.7895 88.0128 87.5138 88.1464 87.1912C88.28 86.8687 88.315 86.5137 88.2469 86.1713C88.1788 85.8288 88.0107 85.5142 87.7638 85.2673L80.184 77.6875L90.0468 67.8247L99.3922 77.1702C99.7233 77.5013 100.172 77.6874 100.641 77.6875H109.469V74.1562H101.371ZM95.9139 38.8437L98.0327 44.1406H94.7733L92.6546 38.8437H95.9139ZM91.2421 35.3125L89.1234 30.0156H92.3827L94.5014 35.3125H91.2421ZM101.836 44.1406L99.7171 38.8437H102.976L105.095 44.1406H101.836ZM101.564 35.3125H98.3046L96.1859 30.0156H99.4452L101.564 35.3125ZM85.3202 30.0156L87.4389 35.3125H84.1796L82.0609 30.0156H85.3202ZM85.5921 38.8437H88.8514L90.9702 44.1406H87.7108L85.5921 38.8437ZM63.5624 42.375H72.0886C71.7221 43.407 71.0453 44.3004 70.151 44.9326C69.2568 45.5648 68.1888 45.9049 67.0937 45.9062H58.5675C58.934 44.8742 59.6108 43.9808 60.505 43.3486C61.3993 42.7164 62.4672 42.3763 63.5624 42.375ZM29.1592 35.0971L34.2442 41.5575L26.3077 36.9775L29.1592 35.0971ZM21.1874 25.0577V34.2213L18.1329 32.6941L21.1874 25.0577ZM21.364 40.0355L21.5688 43.4432L13.4293 44.6173L21.364 40.0355ZM68.8593 26.4844C68.8593 27.8892 68.3012 29.2365 67.3079 30.2298C66.3145 31.2232 64.9672 31.7812 63.5624 31.7812C62.1576 31.7812 60.8103 31.2232 59.8169 30.2298C58.8236 29.2365 58.2655 27.8892 58.2655 26.4844V21.1875H63.5624C64.9672 21.1875 66.3145 21.7456 67.3079 22.7389C68.3012 23.7323 68.8593 25.0795 68.8593 26.4844ZM63.5624 7.06249C64.9672 7.06249 66.3145 7.62055 67.3079 8.61391C68.3012 9.60727 68.8593 10.9545 68.8593 12.3594C68.8593 13.7642 68.3012 15.1115 67.3079 16.1048C66.3145 17.0982 64.9672 17.6562 63.5624 17.6562H58.2655V12.3594C58.2655 10.9545 58.8236 9.60727 59.8169 8.61391C60.8103 7.62055 62.1576 7.06249 63.5624 7.06249ZM44.1405 12.3594C44.1405 10.9545 44.6986 9.60727 45.692 8.61391C46.6853 7.62055 48.0326 7.06249 49.4374 7.06249C50.8422 7.06249 52.1895 7.62055 53.1829 8.61391C54.1762 9.60727 54.7343 10.9545 54.7343 12.3594V17.6562H49.4374C48.0326 17.6562 46.6853 17.0982 45.692 16.1048C44.6986 15.1115 44.1405 13.7642 44.1405 12.3594ZM49.4374 31.7812C48.0326 31.7812 46.6853 31.2232 45.692 30.2298C44.6986 29.2365 44.1405 27.8892 44.1405 26.4844C44.1405 25.0795 44.6986 23.7323 45.692 22.7389C46.6853 21.7456 48.0326 21.1875 49.4374 21.1875H54.7343V26.4844C54.7343 27.8892 54.1762 29.2365 53.1829 30.2298C52.1895 31.2232 50.8422 31.7812 49.4374 31.7812ZM75.9218 84.75C75.4535 84.7501 75.0045 84.9362 74.6735 85.2673L71.6596 88.2812H70.6249V84.75C70.6249 83.3452 70.0668 81.9979 69.0735 81.0045C68.0801 80.0112 66.7328 79.4531 65.328 79.4531H42.3749C41.9067 79.4532 41.4576 79.6393 41.1266 79.9704L36.3471 84.75H30.7465L56.4999 58.9966L82.2533 84.75H75.9218Z" fill="#162A71"/>
</svg>
