<svg width="100" height="100" viewBox="0 0 100 100" fill="none" xmlns="http://www.w3.org/2000/svg">
<g clip-path="url(#clip0)">
<path d="M23.7981 68.8702C22.3558 69.8317 20.4327 69.5913 19.4712 68.149C18.5097 66.7067 18.9904 64.7836 20.4327 63.8221L44.2308 47.7163C45.6731 46.7548 47.5962 47.2355 48.5577 48.6779L54.8077 58.0529L76.202 43.6298C77.4039 42.6682 79.327 42.9086 80.2885 44.3509C81.25 45.7932 81.0097 47.7163 79.5673 48.6779L55.7693 64.7836C54.327 65.7452 52.4039 65.2644 51.4423 63.8221L45.1924 54.4471L23.7981 68.8702Z" fill="#162A71"/>
<path d="M35.3365 7.81247C34.375 6.61055 34.375 4.68747 35.3365 3.48555C36.5385 2.28363 38.4615 2.28363 39.6635 3.48555L50 13.5817L60.0962 3.48555C61.2981 2.28363 63.2212 2.28363 64.4231 3.48555C65.625 4.68747 65.625 6.61055 64.4231 7.81247L57.2115 15.024H84.8558C93.0288 15.024 100 21.9952 100 30.1682V82.3317C100 90.5048 93.0288 97.4759 84.8558 97.4759H15.1442C6.73077 97.4759 0 90.5048 0 82.3317V30.1682C0 21.9952 6.73077 15.024 15.1442 15.024H42.7885L35.3365 7.81247ZM84.8558 21.274H15.1442C10.0962 21.274 6.00962 25.3605 6.00962 30.1682V82.3317C6.00962 87.1394 10.0962 91.2259 15.1442 91.2259H84.8558C89.6635 91.2259 93.75 87.1394 93.75 82.3317V30.1682C93.75 25.1202 89.6635 21.274 84.8558 21.274Z" fill="#162A71"/>
</g>
<defs>
<clipPath id="clip0">
<rect width="100" height="100" fill="white"/>
</clipPath>
</defs>
</svg>
